<?xml version="1.0" encoding="UTF-8"?>
<svg id="Layer_1" data-name="Layer 1" xmlns="http://www.w3.org/2000/svg" viewBox="0 0 901 16">
  <defs>
    <style>
      .cls-1 {
        fill: #ed9d11;
        stroke-width: 0px;
      }
    </style>
  </defs>
  <g id="Layer_1-2" data-name="Layer 1">
    <g id="Layer_1-2" data-name="Layer 1-2">
      <g id="Path_12" data-name="Path 12">
        <path class="cls-1" d="m901,16h-17V0h17v16Zm-34,0h-17V0h17v16Zm-34,0h-17V0h17v16Zm-34,0h-17V0h17v16Zm-34,0h-17V0h17v16Zm-34,0h-17V0h17v16Zm-34,0h-17V0h17v16Zm-34,0h-17V0h17v16Zm-34,0h-17V0h17v16Zm-34,0h-17V0h17v16Zm-34,0h-17V0h17v16Zm-34,0h-17V0h17v16Zm-34,0h-17V0h17v16Zm-34,0h-17V0h17v16Zm-34,0h-17V0h17v16Zm-34,0h-17V0h17v16Zm-34,0h-17V0h17v16Zm-34,0h-17V0h17v16Zm-34,0h-17V0h17v16Zm-34,0h-17V0h17v16Zm-34,0h-17V0h17v16Zm-34,0h-17V0h17v16Zm-34,0h-17V0h17v16Zm-34,0h-17V0h17v16Zm-34,0h-17V0h17v16Zm-34,0h-17V0h17v16Zm-34,0H0V0h17v16Z"/>
      </g>
    </g>
  </g>
</svg>